<?xml version="1.0" encoding="utf-8"?>
<!-- Generator: Adobe Illustrator 26.5.1, SVG Export Plug-In . SVG Version: 6.00 Build 0)  -->
<svg version="1.1" xmlns="http://www.w3.org/2000/svg" xmlns:xlink="http://www.w3.org/1999/xlink" x="0px" y="0px"
	 viewBox="0 0 800 800" style="enable-background:new 0 0 800 800;" xml:space="preserve">
<style type="text/css">
	.st0{fill:none;stroke:#603813;stroke-width:6;stroke-miterlimit:10;}
	.st1{fill:none;stroke:#603813;stroke-width:3;stroke-miterlimit:10;}
	.st2{fill:#603813;}
	.st3{display:none;}
	.st4{display:inline;fill:none;stroke:#603813;stroke-width:6;stroke-miterlimit:10;}
	.st5{display:inline;fill:none;stroke:#603813;stroke-width:3;stroke-miterlimit:10;}
	.st6{display:inline;}
	.st7{display:inline;fill:#603813;}
	.st8{display:inline;fill:none;stroke:#000000;stroke-miterlimit:10;}
</style>
<g id="圖層_6">
	<ellipse class="st0" cx="596.06" cy="607.49" rx="73.5" ry="69"/>
	<path class="st1" d="M587.94,672.84c0,0,61.94,3.95,44.29-46.06c-12-34-52.47-27.74-58-48c-3-11,5-25,23-23c19.12,2.12,14,20,14,20
		"/>
	<g>
		<path class="st2" d="M609.73,668.28c-15,2-27.94-6.62-30-19c-2.06-12.38,5-22,21-24c11.1-1.39,21.99,4.5,27.29,12.22
			c0.03,0.05,0.1,0,0.07-0.05c-7.46-13.64-14.75-28.92-41.52-27.52c-25.84,1.35-34.84,23.35-32.84,38.35
			c2.3,17.22,19.08,25.35,30,27c33,5,48-13,48-17c0-1.41-3,3-2-1c0.01-0.06-2.82,4.22-4,5C619.73,666.28,614.78,667.6,609.73,668.28
			z"/>
	</g>
	<path class="st2" d="M581.73,575.28c0-7.18,6.94-13,15.5-13s15.5,4.82,15.5,12s-6.94,14-15.5,14S581.73,582.46,581.73,575.28z"/>
	<path class="st2" d="M601,633c0,0-0.28,11.84-0.31,15c-0.07,7,3,8,3,8l2,1h-16c-4.57,0.04,1.94-0.92,2-7c0.05-5,0.31-17,0.31-18
		c0-3.61,9-4,9-4"/>
	<polyline class="st2" points="592,575 592,586 591,587 591,587 601,592 601.06,567.99 	"/>
	<path class="st2" d="M601.06,556.99v-2l-0.24-15.92c-1.48-0.08-2.96-0.14-4.47-0.14c-0.9,0-1.79,0.03-2.69,0.06l-0.61,1
		l-0.63,14.12l-0.37,1.88"/>
	<g>
		<path d="M539.26,600.2c0,0.17-0.03,0.31-0.09,0.44c-0.51,1.01-1.21,2.08-2.09,3.19c-0.12,0.16-0.19,0.31-0.19,0.45
			c0,0.21,0.01,0.52,0.04,0.93s0.04,0.72,0.04,0.93c0,0.07-0.02,0.11-0.05,0.13c-0.01,0-0.06,0.01-0.16,0.03
			c-0.14,0.02-0.49,0.04-1.05,0.04c-0.57,0-0.93-0.01-1.08-0.04c-0.11-0.02-0.16-0.07-0.16-0.17c0-0.21,0.02-0.52,0.05-0.95
			s0.05-0.74,0.05-0.95c0-0.12-0.05-0.26-0.14-0.4c-0.47-0.67-1.15-1.69-2.03-3.07c-0.09-0.15-0.13-0.28-0.13-0.38
			c0-0.23-0.01-0.59-0.04-1.05s-0.04-0.82-0.04-1.05c0-0.13,0.04-0.19,0.12-0.19c0.24,0,0.6,0.01,1.08,0.03s0.85,0.03,1.09,0.03
			c0.09,0,0.13,0.03,0.13,0.09c0,0.2-0.01,0.5-0.03,0.9s-0.03,0.7-0.03,0.9c0,0.12,0.17,0.41,0.52,0.88
			c0.27,0.37,0.5,0.65,0.67,0.85c0.16-0.19,0.37-0.47,0.64-0.84c0.34-0.47,0.5-0.75,0.5-0.85c0-0.2-0.01-0.49-0.04-0.89
			s-0.04-0.69-0.04-0.89c0-0.08,0.02-0.13,0.05-0.14H537c0.23,0,0.59-0.01,1.06-0.03s0.83-0.03,1.06-0.03
			c0.08,0,0.12,0.08,0.12,0.25c0,0.21,0,0.52,0.01,0.93S539.26,599.99,539.26,600.2z"/>
		<path d="M545.98,600.97c0,0.29-0.01,0.72-0.04,1.3s-0.04,1.01-0.04,1.3c0,0.28,0.01,0.7,0.03,1.27s0.03,0.98,0.03,1.26
			c0,0.11-0.05,0.17-0.15,0.2c-0.15,0.04-0.46,0.06-0.94,0.06c-0.43,0-0.72-0.01-0.89-0.04c-0.07-0.01-0.12-0.06-0.14-0.14
			c-0.01-0.12-0.02-0.23-0.04-0.35c-0.02-0.18-0.05-0.27-0.08-0.27c0.05,0-0.14,0.13-0.59,0.4s-0.86,0.4-1.22,0.4
			c-1.04,0-1.65-0.47-1.84-1.4c-0.09-0.43-0.13-1.06-0.13-1.89c0-0.89,0.07-1.59,0.22-2.11c0.04-0.16,0.12-0.24,0.24-0.24
			c0.18,0,0.45,0,0.82,0.01s0.64,0.01,0.82,0.01c0.12,0,0.18,0.05,0.18,0.15c0,0.03,0,0.07-0.01,0.12
			c-0.08,0.53-0.12,1.07-0.12,1.62c0,0.68,0.02,1.14,0.06,1.39c0.07,0.43,0.33,0.64,0.77,0.64c0.17,0,0.36-0.08,0.56-0.23
			s0.31-0.31,0.31-0.47c0.01-0.14,0.01-1.12,0.01-2.94c0-0.13,0.01-0.21,0.03-0.23c0.02-0.04,0.09-0.06,0.21-0.06
			c0.19,0,0.48,0,0.86,0.01s0.67,0.01,0.86,0.01c0.12,0,0.19,0.03,0.21,0.09C545.98,600.86,545.98,600.91,545.98,600.97z"/>
		<path d="M552.84,603.36c0,0.3,0.02,0.75,0.05,1.34s0.05,1.04,0.05,1.34c0,0.16-0.07,0.24-0.21,0.25
			c-0.48,0.04-1.04,0.05-1.66,0.05c-0.07,0-0.12-0.11-0.15-0.34s-0.06-0.34-0.09-0.34c-0.03,0.02-0.07,0.05-0.12,0.1
			c-0.44,0.44-0.91,0.66-1.41,0.66c-0.76,0-1.39-0.3-1.89-0.9c-0.47-0.56-0.71-1.23-0.71-2.02c0-0.9,0.24-1.63,0.73-2.18
			c0.51-0.57,1.2-0.86,2.09-0.86c0.61,0,1.1,0.21,1.45,0.64c0.02,0.02,0.03,0.03,0.04,0.03c0.04,0,0.08-0.09,0.12-0.28
			s0.1-0.28,0.16-0.28c0.14,0,0.42,0.04,0.83,0.12c0.39,0.08,0.66,0.14,0.83,0.2c0.06,0.02,0.09,0.05,0.09,0.09
			c0,0.02-0.01,0.06-0.02,0.12C552.9,601.83,552.84,602.58,552.84,603.36z M550.95,603.4c0-0.33-0.1-0.61-0.31-0.82
			s-0.48-0.33-0.82-0.33s-0.61,0.11-0.81,0.32s-0.31,0.49-0.31,0.83c0,0.32,0.11,0.59,0.33,0.81s0.48,0.34,0.8,0.34
			c0.33,0,0.6-0.11,0.81-0.33S550.95,603.74,550.95,603.4z"/>
		<path d="M559.83,606.12c0,0.11-0.05,0.17-0.16,0.18s-0.39,0.02-0.86,0.02c-0.49,0-0.8-0.01-0.91-0.04s-0.18-0.1-0.18-0.24
			c0-0.18,0.01-0.46,0.02-0.83s0.02-0.65,0.02-0.84c0-0.14,0-0.36-0.01-0.65s-0.01-0.5-0.01-0.65c0-0.54-0.23-0.8-0.7-0.8
			c-0.15,0-0.33,0.07-0.53,0.2c-0.22,0.15-0.33,0.29-0.33,0.44v3.16c0,0.13-0.06,0.2-0.18,0.22c-0.14,0.02-0.42,0.02-0.84,0.02
			c-0.46,0-0.75-0.01-0.89-0.04c-0.12-0.02-0.18-0.08-0.18-0.19c0-0.3,0-0.76,0.01-1.38s0.01-1.07,0.01-1.38
			c0-0.97-0.08-1.74-0.23-2.29c-0.01-0.04-0.01-0.06-0.01-0.09c0-0.06,0.03-0.11,0.09-0.13c0.25-0.03,0.57-0.07,0.98-0.13
			c0.62-0.12,0.97-0.18,1.05-0.18c0.04,0,0.08,0.13,0.1,0.4s0.06,0.4,0.1,0.4c-0.04,0,0.17-0.14,0.63-0.41s0.87-0.41,1.22-0.41
			c0.5,0,0.91,0.12,1.24,0.35c0.37,0.27,0.56,0.64,0.56,1.12v1.87c0,0.25,0,0.63,0.01,1.14S559.83,605.87,559.83,606.12z"/>
		<path d="M570.84,603.6c0,0.79-0.33,1.47-1,2.04c-0.59,0.5-1.3,0.82-2.14,0.96c-0.03,0-0.06,0.01-0.08,0.01
			c-0.09,0-0.29-0.27-0.6-0.82s-0.46-0.88-0.46-1c0-0.04,0.03-0.07,0.09-0.08c0.57-0.13,0.94-0.24,1.12-0.33
			c0.41-0.2,0.61-0.5,0.61-0.9c0-0.25-0.13-0.54-0.4-0.85c-0.46-0.53-0.71-0.83-0.75-0.88c-0.27-0.41-0.4-0.86-0.4-1.35
			c0-0.71,0.33-1.31,0.99-1.78c0.54-0.39,1.2-0.64,1.99-0.76c0.04,0,0.08-0.01,0.1-0.01c0.06,0,0.11,0.05,0.14,0.14
			c0.1,0.29,0.34,0.8,0.71,1.55c0.01,0.02,0.02,0.04,0.02,0.06c0,0.07-0.04,0.1-0.11,0.1c-0.03,0-0.08-0.01-0.16-0.02
			s-0.13-0.02-0.17-0.02c-0.28,0-0.53,0.06-0.74,0.19c-0.25,0.15-0.38,0.36-0.38,0.62c0,0.24,0.14,0.53,0.42,0.88
			c0.5,0.62,0.76,0.95,0.78,0.98C570.7,602.75,570.84,603.17,570.84,603.6z"/>
		<path d="M577.62,602.05l-0.01,4.04c0,0.14-0.05,0.21-0.16,0.23c-0.12,0.02-0.41,0.02-0.86,0.02c-0.43,0-0.73-0.02-0.9-0.05
			c-0.13-0.02-0.19-0.11-0.19-0.25c0-0.34,0.01-0.84,0.02-1.52s0.02-1.18,0.02-1.52c0-0.46-0.23-0.69-0.7-0.69
			c-0.16,0-0.34,0.06-0.55,0.19c-0.23,0.14-0.35,0.28-0.35,0.43v1.45c0,0.19,0,0.47,0.01,0.85s0.01,0.66,0.01,0.85
			c0,0.14-0.06,0.22-0.18,0.24s-0.46,0.02-1.02,0.02c-0.32,0-0.55-0.02-0.69-0.05s-0.21-0.1-0.21-0.21c0-0.31,0-0.77,0.01-1.39
			s0.01-1.08,0.01-1.39c0-1.28-0.01-2.33-0.04-3.17c-0.01-0.29-0.02-0.59-0.03-0.88c-0.02-0.34-0.05-0.63-0.11-0.87
			c-0.01-0.05-0.02-0.09-0.02-0.11c0-0.06,0.03-0.1,0.09-0.12c0.12-0.04,0.3-0.06,0.53-0.06c0.31-0.01,0.49-0.02,0.54-0.03
			l1.06-0.12c0.06,0,0.09,0.04,0.09,0.12c0,0.12-0.01,0.29-0.02,0.51c-0.02,0.25-0.02,0.42-0.02,0.51
			c-0.02,0.88-0.04,1.58-0.04,2.09c0,0.08,0.02,0.12,0.06,0.12c0.01,0,0.11-0.07,0.3-0.21c0.23-0.16,0.44-0.29,0.65-0.38
			c0.31-0.14,0.61-0.21,0.9-0.21c0.5,0,0.92,0.13,1.25,0.39C577.44,601.17,577.62,601.56,577.62,602.05z"/>
		<path d="M583.94,603.11c0,0.39-0.13,0.62-0.38,0.67c-0.04,0.01-0.45,0.05-1.21,0.13c-0.46,0.05-1.15,0.11-2.06,0.18
			c0.05,0.25,0.22,0.45,0.5,0.58c0.23,0.11,0.48,0.16,0.77,0.16c0.35,0,0.7-0.09,1.05-0.28c0.15-0.09,0.3-0.19,0.45-0.28
			c0.08,0.04,0.22,0.24,0.41,0.6s0.29,0.59,0.29,0.69c0,0.03-0.03,0.07-0.09,0.13c-0.48,0.51-1.22,0.77-2.22,0.77
			c-0.93,0-1.68-0.27-2.25-0.81c-0.59-0.55-0.88-1.29-0.88-2.21c0-0.9,0.26-1.63,0.79-2.21c0.54-0.59,1.25-0.89,2.14-0.89
			c0.75,0,1.39,0.27,1.91,0.82S583.94,602.36,583.94,603.11z M581.89,602.75c0-0.24-0.09-0.46-0.26-0.64s-0.38-0.28-0.62-0.28
			c-0.25,0-0.45,0.1-0.61,0.31c-0.15,0.19-0.22,0.42-0.22,0.67c0,0.11,0.05,0.16,0.16,0.16c0.29,0,0.74-0.04,1.35-0.13
			C581.83,602.83,581.89,602.8,581.89,602.75z"/>
		<path d="M590.41,606.12c0,0.11-0.05,0.17-0.16,0.18s-0.39,0.02-0.86,0.02c-0.49,0-0.8-0.01-0.91-0.04s-0.18-0.1-0.18-0.24
			c0-0.18,0.01-0.46,0.02-0.83s0.02-0.65,0.02-0.84c0-0.14,0-0.36-0.01-0.65s-0.01-0.5-0.01-0.65c0-0.54-0.23-0.8-0.7-0.8
			c-0.15,0-0.33,0.07-0.53,0.2c-0.22,0.15-0.33,0.29-0.33,0.44v3.16c0,0.13-0.06,0.2-0.18,0.22c-0.14,0.02-0.42,0.02-0.84,0.02
			c-0.46,0-0.75-0.01-0.89-0.04c-0.12-0.02-0.18-0.08-0.18-0.19c0-0.3,0-0.76,0.01-1.38s0.01-1.07,0.01-1.38
			c0-0.97-0.08-1.74-0.23-2.29c-0.01-0.04-0.01-0.06-0.01-0.09c0-0.06,0.03-0.11,0.09-0.13c0.25-0.03,0.57-0.07,0.98-0.13
			c0.62-0.12,0.97-0.18,1.05-0.18c0.04,0,0.08,0.13,0.1,0.4s0.06,0.4,0.1,0.4c-0.04,0,0.17-0.14,0.63-0.41s0.87-0.41,1.22-0.41
			c0.5,0,0.91,0.12,1.24,0.35c0.37,0.27,0.56,0.64,0.56,1.12v1.87c0,0.25,0,0.63,0.01,1.14S590.41,605.87,590.41,606.12z"/>
		<path d="M597.23,604.77c0,1.11-0.23,1.91-0.7,2.4c-0.48,0.5-1.29,0.74-2.41,0.74c-0.33,0-0.78-0.05-1.34-0.16
			c-0.72-0.13-1.08-0.29-1.08-0.47c0-0.07,0.08-0.46,0.25-1.15c0.03-0.11,0.07-0.16,0.13-0.16c0.02,0,0.04,0.01,0.06,0.02
			c0.6,0.3,1.16,0.45,1.67,0.45c0.28,0,0.56-0.07,0.84-0.21c0.34-0.17,0.5-0.38,0.5-0.63v-0.39c-0.4,0.38-0.91,0.56-1.54,0.56
			c-0.73,0-1.34-0.26-1.81-0.79c-0.46-0.51-0.69-1.13-0.69-1.88c0-0.75,0.22-1.37,0.66-1.86c0.46-0.51,1.05-0.77,1.79-0.77
			c0.59,0,1.04,0.21,1.35,0.63c0.06,0.09,0.11,0.13,0.13,0.13c0.04,0,0.05-0.07,0.05-0.21c0-0.31,0.04-0.47,0.11-0.47
			c0.06,0,0.4,0.03,1.01,0.1s0.93,0.1,0.96,0.11c0.07,0.02,0.1,0.07,0.1,0.15c0,0.27-0.01,0.67-0.03,1.21s-0.03,0.94-0.03,1.21
			c0,0.16,0,0.4,0.01,0.72S597.23,604.61,597.23,604.77z M595.2,603.15c0-0.29-0.09-0.53-0.28-0.74s-0.43-0.31-0.71-0.31
			s-0.52,0.11-0.71,0.32s-0.28,0.46-0.28,0.75s0.1,0.53,0.29,0.74s0.43,0.31,0.71,0.31c0.29,0,0.52-0.11,0.71-0.32
			S595.2,603.43,595.2,603.15z"/>
	</g>
	<g>
		<path d="M630.34,600.68l2.14-0.13c-0.13-0.38-0.31-0.78-0.57-1.2l0.88-0.25c0.42,0.59,0.84,1.37,1.26,2.33l-1.07,0.38l-0.19-0.44
			c-0.42,0.08-0.82,0.15-1.2,0.19v6.68h-1.26v-6.49c-0.63,0.08-1.28,0.17-1.96,0.25c-0.21,0.25-0.34,0.27-0.38,0.06l-0.19-1.32h1.07
			c0.5-0.59,0.92-1.11,1.26-1.58c-0.25-0.25-1.05-0.92-2.4-2.02l0.63-0.88l0.5,0.38c0.59-0.67,1.24-1.66,1.95-2.96l0.88,0.57
			c0.34,0.21,0.29,0.36-0.13,0.44l-1.83,2.58l1.07,0.88c0.71-1.01,1.26-1.85,1.64-2.52l1.01,0.69c0.29,0.21,0.21,0.34-0.25,0.38
			L630.34,600.68z M627.88,606.35c0.34-1.26,0.52-2.44,0.57-3.53l1.07,0.19c0.29,0.04,0.34,0.17,0.13,0.38
			c-0.08,1.35-0.29,2.5-0.63,3.47L627.88,606.35z M633.05,602.63c0.34,1.01,0.55,1.93,0.63,2.77l-1.2,0.32
			c-0.13-1.34-0.29-2.29-0.5-2.84L633.05,602.63z M639.42,598.66h2.9v1.01h-2.71c0.08,0.55,0.21,1.09,0.38,1.64l1.26-1.13l0.69,0.82
			c0.25,0.29,0.19,0.4-0.19,0.32l-1.45,1.07c0.5,1.13,1.34,2.27,2.52,3.4l-1.01,1.07c-1.72-1.64-2.82-4.04-3.28-7.19h-0.25
			l-0.57,0.57c0.92,1.39,1.39,2.82,1.39,4.29v0.76c0,1.93-0.48,2.9-1.45,2.9h-1.07l-0.32-1.01h0.95c0.59,0,0.88-0.63,0.88-1.89
			v-1.07c-1.39,1.51-3.01,2.67-4.85,3.47l-0.44-1.07c1.93-0.76,3.66-1.95,5.17-3.59l-0.19-0.76c-1.13,0.97-2.38,1.76-3.72,2.4
			l-0.31-1.01c1.34-0.5,2.56-1.26,3.66-2.27l-0.32-0.57c-0.92,0.76-2.04,1.47-3.34,2.14l-0.32-0.95c1.26-0.55,2.48-1.32,3.66-2.33
			h-3.59v-1.01h4.79l0.44-1.13h-3.09l-0.25,0.57l-1.07-0.25c0.5-1.01,1.01-2.37,1.51-4.1l0.95,0.06c0.34,0.04,0.34,0.17,0,0.38
			l-0.13,0.38h2.9l0.13-0.25l0.88,0.38c0.34,0.13,0.34,0.25,0,0.38L639.42,598.66z M636.02,596.52h2.96l0.32-0.95h-2.96
			L636.02,596.52z"/>
		<path d="M645.35,599.29v-1.83h5.86v2.58h-4.85c-0.34,0.93-0.92,1.58-1.76,1.96l-0.63-0.88
			C644.88,600.66,645.35,600.05,645.35,599.29z M658.46,606.79l-3.34,0.19v1.39h-1.26v-1.32l-9.27,0.38
			c-0.21,0.34-0.34,0.36-0.38,0.06l-0.13-1.13l3.28-0.06v-4.04h-1.51v-1.01h11.03v1.01h-1.76v3.78l3.34-0.19V606.79z M651.08,596.9
			h-5.99v-0.76h2.52v-0.69h-3.22v-0.76h3.22v-1.01h1.01c0.34,0.04,0.36,0.17,0.06,0.38v0.63h2.84v0.76h-2.84v0.69h2.4V596.9z
			 M647.74,598.22h-1.32v1.07h1.32V598.22z M653.86,602.25h-5.23v0.69h5.23V602.25z M653.86,603.7h-5.23v0.82h5.23V603.7z
			 M648.62,606.23l5.23-0.13v-0.82h-5.23V606.23z M650.14,598.22h-1.32v1.07h1.32V598.22z M651.52,601.18l-0.5-0.88
			c0.97-0.13,1.85-0.36,2.65-0.69c-0.46-0.38-0.86-0.8-1.2-1.26h-0.76v-0.76h4.73l0.19-0.25l0.69,0.5c0.34,0.25,0.32,0.36-0.06,0.32
			c-0.55,0.63-1.13,1.13-1.77,1.51c0.76,0.34,1.81,0.57,3.15,0.69l-0.57,1.01c-1.39-0.29-2.58-0.69-3.59-1.2
			C653.31,600.72,652.32,601.06,651.52,601.18z M652.03,597.4l-0.57-0.69c0.63-0.17,0.95-0.59,0.95-1.26v-1.26h3.66v1.45
			c0,0.29,0.15,0.44,0.44,0.44h0.5c0.21,0,0.33-0.13,0.38-0.38l0.06-0.5l0.88,0.31l-0.13,0.57c-0.13,0.5-0.46,0.76-1.01,0.76h-0.88
			c-0.76,0-1.13-0.36-1.13-1.07v-0.57h-1.89v0.38C653.29,596.5,652.87,597.11,652.03,597.4z M654.61,599.23
			c0.55-0.34,0.92-0.63,1.13-0.88h-2.08C653.88,598.68,654.19,598.98,654.61,599.23z"/>
	</g>
</g>
<g id="圖層_5" class="st3">
	<ellipse class="st4" cx="384.06" cy="607.49" rx="73.5" ry="69"/>
	<path class="st5" d="M375.94,672.84c0,0,61.94,3.95,44.29-46.06c-12-34-52.47-27.74-58-48c-3-11,5-25,23-23c19.12,2.12,14,20,14,20
		"/>
	<g class="st6">
		<path class="st2" d="M397.73,668.28c-15,2-27.94-6.62-30-19c-2.06-12.38,5-22,21-24c11.1-1.39,21.99,4.5,27.29,12.22
			c0.03,0.05,0.1,0,0.07-0.05c-7.46-13.64-14.75-28.92-41.52-27.52c-25.84,1.35-34.84,23.35-32.84,38.35
			c2.3,17.22,19.08,25.35,30,27c33,5,48-13,48-17c0-1.41-3,3-2-1c0.01-0.06-2.82,4.22-4,5C407.73,666.28,402.78,667.6,397.73,668.28
			z"/>
	</g>
	<path class="st7" d="M369.73,575.28c0-7.18,6.94-13,15.5-13c8.56,0,15.5,4.82,15.5,12s-6.94,14-15.5,14
		C376.67,588.28,369.73,582.46,369.73,575.28z"/>
	<path class="st7" d="M380.06,626.99c0,0-0.03,17.84,0,21c0.07,7-3,8-3,8l-2,1h16c4.57,0.04-1.94-0.92-2-7c-0.05-5,0-10,0-11
		c0-3.61-9-13-9-13"/>
	<polyline class="st7" points="380.06,562.99 380.45,584.23 380.45,588.53 389.19,597.55 389.19,583.88 389.06,562.99 	"/>
	<path class="st7" d="M389.06,556.99v-2l-0.24-15.92c-1.48-0.08-2.96-0.14-4.47-0.14c-0.9,0-1.79,0.03-2.69,0.06l-0.61,1
		l-0.63,14.12l-0.37,1.88"/>
</g>
<g id="圖層_1" class="st3">
	<path class="st5" d="M160.21,665.56c0,0,61.94,3.95,44.29-46.06c-12-34-52.47-27.74-58-48c-3-11,5-25,23-23c19.12,2.12,14,20,14,20
		"/>
	<g class="st6">
		<path class="st2" d="M182,661c-15,2-27.94-6.62-30-19c-2.06-12.38,5-22,21-24c11.1-1.39,21.99,4.5,27.29,12.22
			c0.03,0.05,0.1,0,0.07-0.05c-7.46-13.64-14.75-28.92-41.52-27.52C133,604,124,626,126,641c2.3,17.22,19.08,25.35,30,27
			c33,5,48-13,48-17c0-1.41-3,3-2-1c0.01-0.06-2.82,4.22-4,5C192,659,187.05,660.33,182,661z"/>
	</g>
	<path class="st7" d="M154,568c0-7.18,6.94-13,15.5-13s15.5,4.82,15.5,12s-6.94,14-15.5,14S154,575.18,154,568z"/>
</g>
<g id="圖層_3" class="st3">
	<g class="st6">
		<path class="st2" d="M631.87,331.82c2.58,1.9-28.85,1.85-57,30c-6,6,0,12-1,14c-3.26,6.51-15-24,5-42
			C602.57,312.49,624.65,326.51,631.87,331.82z"/>
		<path class="st1" d="M599.07,476.38c0,0,61.94,3.95,44.29-46.06c-12-34-65-37-72-58c-4.74-14.23,8.41-41.88,29-46c10-2,19,1,19,1"
			/>
		<g>
			<path class="st2" d="M620.87,471.82c-15,2-27.94-6.62-30-19c-2.06-12.38,5-22,21-24c11.1-1.39,21.99,4.5,27.29,12.22
				c0.03,0.05,0.1,0,0.07-0.05c-7.46-13.64-14.79-29.56-41.52-27.52c-30.84,2.35-37.84,24.34-37.84,36.09
				c0,19.51,16,29.26,36.87,29.26c29.26,0,37.28-8.12,43.13-13c1.68-1.4,1-2,1-5c0-0.06-3.82,4.22-5,5
				C629.87,469.82,625.92,471.15,620.87,471.82z"/>
		</g>
	</g>
</g>
<g id="圖層_2" class="st3">
	<path class="st7" d="M484.99,351.82c-1.05,5.59-38.96,6.5-60.95-4.4c-21.99-10.9-30.73-35.59-28.78-38.52
		c9.75-14.63,38.04-16.58,62.42-4.88C470.27,310.07,487.92,336.21,484.99,351.82z"/>
	<g class="st6">
		<path class="st2" d="M406.98,477.62c-15.45,2.58-29.65-5.37-31.72-17.75c-2.06-12.38,8.8-24.42,24.24-27.08
			c11.02-1.9,17.27,8.14,22.58,15.86c0.03,0.05,0.1,0,0.07-0.05c-7.46-13.64-14.71-27.52-41.52-27.52
			c-37.06,0-45.84,24.34-45.84,36.09c0,19.51,20.46,29.26,44.87,29.26c29.26,0,41.94-8.78,47.79-13.66c1.68-1.4-2.23-1.41-0.91-2.88
			c0.04-0.04-0.03-0.1-0.07-0.06C422.19,473.98,419.3,475.57,406.98,477.62z"/>
	</g>
	<path class="st5" d="M385.99,483.98c0,0,79.01,0,39.02-65.35c-23.91-39.07-40.46-90.12-28.29-109.24"/>
</g>
<g id="圖層_4" class="st3">
	<path class="st8" d="M197.74,448.22c-12-31-39-37-69-23c-16.06,7.49-20,22-20,22c-8,31,27.66,39,55,39s48.5-12.66,48.5-40
		c0-27.34-37.16-47.95-37.16-47.95c-16.69-10.18-27.84-28.57-27.84-49.55c0-32.03,25.97-58,58-58s58,25.97,58,58
		c0,0-76.53,19-93.5-45.5"/>
</g>
</svg>
